<?xml version="1.0" encoding="utf-8"?>
<!-- Generator: Adobe Illustrator 16.0.0, SVG Export Plug-In . SVG Version: 6.00 Build 0)  -->
<!DOCTYPE svg PUBLIC "-//W3C//DTD SVG 1.1//EN" "http://www.w3.org/Graphics/SVG/1.1/DTD/svg11.dtd">
<svg version="1.1" id="email" xmlns="http://www.w3.org/2000/svg" xmlns:xlink="http://www.w3.org/1999/xlink" x="0px" y="0px"
	 width="464px" height="220px" viewBox="29 0 464 220" enable-background="new 29 0 464 220" xml:space="preserve">
<g>
	
		<line fill="#F5F8FA" stroke="#B9DEF9" stroke-width="2" stroke-linecap="round" stroke-linejoin="round" stroke-miterlimit="10" x1="183.085" y1="48.958" x2="146.43" y2="48.958"/>
	
		<line fill="#F5F8FA" stroke="#B9DEF9" stroke-width="2" stroke-linecap="round" stroke-linejoin="round" stroke-miterlimit="10" x1="163.864" y1="87.227" x2="104.421" y2="87.227"/>
	
		<line fill="#F5F8FA" stroke="#B9DEF9" stroke-width="2" stroke-linecap="round" stroke-linejoin="round" stroke-miterlimit="10" x1="226.334" y1="125.507" x2="125.214" y2="125.507"/>
	
		<line fill="#F5F8FA" stroke="#B9DEF9" stroke-width="2" stroke-linecap="round" stroke-linejoin="round" stroke-miterlimit="10" x1="233.313" y1="176.595" x2="197.24" y2="176.595"/>
</g>
<g id="email_marketers_2_">
	<g id="envelope_8_">
		<polygon fill="#F5F8FA" stroke="#66B8FF" stroke-width="2" stroke-linecap="round" stroke-miterlimit="10" points="
			356.263,196.823 345.083,145.786 345.088,145.786 343.199,137.188 246.551,158.364 248.439,166.958 248.439,166.968 259.628,218 
					"/>
		<polygon fill="#FFFFFF" stroke="#66B8FF" stroke-width="1.5" stroke-linecap="round" stroke-miterlimit="10" points="
			317.121,177.715 345.106,145.825 316.452,177.389 315.731,178.175 304.293,190.768 289.031,184.269 287.807,183.761 
			248.439,167.015 287.322,184.335 259.613,218 288.509,184.858 304.576,192.02 316.434,178.514 356.263,196.823 		"/>
	</g>
	<g id="envelope_7_">
		
			<polygon fill="#FFFFFF" stroke="#B9DEF9" stroke-width="2" stroke-linecap="round" stroke-linejoin="round" stroke-miterlimit="10" points="
			329.972,16.506 207.146,2.002 205.86,12.922 205.87,12.927 198.203,77.793 321.006,92.293 328.677,27.438 328.686,27.433 		"/>
		
			<polygon fill="#F5F8FA" stroke="#B9DEF9" stroke-width="1.5" stroke-linecap="round" stroke-linejoin="round" stroke-miterlimit="10" points="
			328.686,27.499 281.916,53.043 280.758,53.693 262.105,63.879 246.721,49.966 245.496,48.853 205.846,12.996 244.695,49.349 
			198.189,77.785 245.873,50.462 261.921,65.485 281.454,54.36 321.006,92.293 282.594,53.711 		"/>
	</g>
	<g id="envelope_6_">
		<polygon fill="#FFFFFF" stroke="#0088FF" stroke-width="2" stroke-miterlimit="10" points="414.06,128.45 397.097,58.648 
			397.107,58.632 394.252,46.876 262.051,79.006 264.914,90.763 264.914,90.763 281.886,160.571 		"/>
		<polygon fill="none" stroke="#0088FF" stroke-width="1.5" stroke-miterlimit="10" points="359.665,103.403 397.134,58.706 
			358.724,102.971 357.758,104.081 342.439,121.736 321.234,113.282 319.554,112.614 264.924,90.835 318.903,113.434 
			281.857,160.571 320.552,114.111 342.863,123.455 358.747,104.501 414.06,128.45 		"/>
	</g>
</g>
</svg>
