<svg id="visual" viewBox="0 0 960 540" width="960" height="540" xmlns="http://www.w3.org/2000/svg" xmlns:xlink="http://www.w3.org/1999/xlink" version="1.1"><rect x="0" y="0" width="960" height="540" fill="#0077DF"></rect><defs><linearGradient id="grad1_0" x1="43.8%" y1="100%" x2="100%" y2="0%"><stop offset="14.444444444444446%" stop-color="#0077df" stop-opacity="1"></stop><stop offset="85.55555555555554%" stop-color="#0077df" stop-opacity="1"></stop></linearGradient></defs><defs><linearGradient id="grad2_0" x1="0%" y1="100%" x2="56.3%" y2="0%"><stop offset="14.444444444444446%" stop-color="#0077df" stop-opacity="1"></stop><stop offset="85.55555555555554%" stop-color="#0077df" stop-opacity="1"></stop></linearGradient></defs><g transform="translate(960, 540)"><path d="M-216 0C-210.2 -37.6 -204.5 -75.1 -187.1 -108C-169.7 -140.9 -140.6 -169 -107.5 -186.2C-74.4 -203.4 -37.2 -209.7 0 -216L0 0Z" fill="#0B8DF8"></path></g><g transform="translate(0, 0)"><path d="M216 0C210.5 38 205 76.1 187.1 108C169.1 139.9 138.7 165.7 105.5 182.7C72.3 199.7 36.1 207.9 0 216L0 0Z" fill="#0B8DF8"></path></g></svg>